<svg id="Camada_1" data-name="Camada 1" xmlns="http://www.w3.org/2000/svg" viewBox="0 0 315.71 140"><defs><style>.cls-1{fill:#fbece5;}</style></defs><title>sparc</title><path class="cls-1" d="M261.29,52.17a50.38,50.38,0,0,0-10.64,70.31c1.76,2.39,5.47-.34,3.71-2.73A45.71,45.71,0,0,1,264,55.9c2.4-1.77-.33-5.49-2.73-3.72Z"/><path class="cls-1" d="M243.71,76a50.37,50.37,0,0,0,31.19,63.89c2.81,1,4.32-3.4,1.5-4.36a45.72,45.72,0,0,1-28.34-58c1-2.82-3.39-4.32-4.35-1.5Z"/><path class="cls-1" d="M131.35,104.05h9.59a2.47,2.47,0,0,1,2.47,2.46h0a2.47,2.47,0,0,1-2.47,2.47h-9.59a2.47,2.47,0,0,1-2.47-2.47h0A2.47,2.47,0,0,1,131.35,104.05Z"/><path class="cls-1" d="M166.94,129.28l-28-62.71a2.69,2.69,0,0,0-4.87,0L106,129.3a2.2,2.2,0,0,0-.06,1.81,2.64,2.64,0,0,0,1.48,1.4,2.53,2.53,0,0,0,1.91,0,2.45,2.45,0,0,0,1.42-1.33l21.9-50.37h0l.12-.28L134.34,77a2.13,2.13,0,0,1,.16-.25l2-4.46,1.88,4.34a1.76,1.76,0,0,1,.23.37l23.55,54.2a2.71,2.71,0,0,0,3.44,1.34A2.49,2.49,0,0,0,166.94,129.28Z"/><path class="cls-1" d="M105,78.77a19.21,19.21,0,0,0-4.27-6.58,21.64,21.64,0,0,0-14.23-5.77H62.68a2.42,2.42,0,0,0-2.42,2.43v61.53a2.43,2.43,0,0,0,2.43,2.43h0a2.37,2.37,0,0,0,2.41-2.35V71.27H86.53a17.55,17.55,0,0,1,8,2.31,13.09,13.09,0,0,1,5,5,20.23,20.23,0,0,1,2.28,10c0,6.15-2.31,10.44-7,13.14-3.78,2.18-11.33,3.12-18.27,3.12a2.43,2.43,0,0,0-2.47,2.39v0a2.5,2.5,0,0,0,2.43,2.51c7.81,0,16.18-1.23,20.74-3.82,6.27-3.6,9.45-9.45,9.45-17.37A27.33,27.33,0,0,0,105,78.77Z"/><path class="cls-1" d="M37,93.29c-3.2-1.81-8.31-3-13.78-3.46v4.88c4.59.43,8.81,1.32,11.34,2.77,4.74,2.68,7,6.92,7,13a20.06,20.06,0,0,1-2.28,9.93,13.16,13.16,0,0,1-5,4.94,17.73,17.73,0,0,1-8,2.29H4.83v-7h0a2.35,2.35,0,0,0-2.3-2.4H2.41A2.42,2.42,0,0,0,0,120.68H0v9.43a2.42,2.42,0,0,0,2.43,2.4H26.28a20.56,20.56,0,0,0,4.88-.66,20.8,20.8,0,0,0,9.35-5.07,18.83,18.83,0,0,0,4.27-6.51,27.13,27.13,0,0,0,1.65-9.77C46.43,102.65,43.29,96.86,37,93.29Z"/><path class="cls-1" d="M9.45,91.23c3.2,1.82,8.31,3,13.83,3.47V89.82c-4.6-.44-8.82-1.33-11.35-2.78-4.74-2.68-7-6.91-7-13a20,20,0,0,1,2.24-9.92,13,13,0,0,1,5-4.94,17.49,17.49,0,0,1,8-2.29H41.62v7a2.35,2.35,0,0,0,2.3,2.4H44a2.42,2.42,0,0,0,2.39-2.45h0V54.41A2.41,2.41,0,0,0,44,52H20.19a20.06,20.06,0,0,0-4.88.66,20.64,20.64,0,0,0-9.38,5.06A18.83,18.83,0,0,0,1.69,64.2,27.15,27.15,0,0,0,0,74C0,81.87,3.18,87.66,9.45,91.23Z"/><path class="cls-1" d="M220.58,114.36a25.69,25.69,0,0,0-3.79-4.08,24.7,24.7,0,0,0-3.87-2.44,26.15,26.15,0,0,0,4.53-1.74,7.11,7.11,0,0,0,.73-.37c6.24-3.58,9.51-9.59,9.51-17.41A27.94,27.94,0,0,0,226,78.44a19.11,19.11,0,0,0-4.29-6.59,21.61,21.61,0,0,0-14.27-5.79H183.09a2.43,2.43,0,0,0-2.43,2.43h0v61.72a2.5,2.5,0,0,0,2.43,2.43,2.43,2.43,0,0,0,2.43-2.43h0V74.75h0V70.92h21.92a18.12,18.12,0,0,1,8,2.17l.1.07a14.56,14.56,0,0,1,4.93,4.94,21.16,21.16,0,0,1,2.32,10.18c0,6.15-2.32,10.46-7.06,13.15a28.07,28.07,0,0,1-12.18,3.12h-.1a2.49,2.49,0,0,0,0,4.94h.08a15.28,15.28,0,0,1,6.06,1.7,18.26,18.26,0,0,1,7.21,6.29,32.2,32.2,0,0,1,5.33,13.24,2.52,2.52,0,0,0,2.33,2h.11a2.6,2.6,0,0,0,.6-.05,2.34,2.34,0,0,0,1.34-1,2.62,2.62,0,0,0,.37-1.89C225.61,123,223.63,118.53,220.58,114.36Z"/><rect class="cls-1" x="273.12" y="56.78" width="4.75" height="23.66" rx="2.37"/><rect class="cls-1" x="273.12" width="4.75" height="23.66" rx="2.37"/><rect class="cls-1" x="235.27" y="37.84" width="23.66" height="4.75" rx="2.37"/><rect class="cls-1" x="292.05" y="37.84" width="23.66" height="4.75" rx="2.37"/><rect class="cls-1" x="253.04" y="8.31" width="4.75" height="23.66" rx="2.37" transform="translate(60.57 186.51) rotate(-45)"/><rect class="cls-1" x="293.19" y="48.46" width="4.75" height="23.66" rx="2.37" transform="translate(43.94 226.65) rotate(-45)"/><rect class="cls-1" x="293.96" y="7.55" width="23.66" height="4.75" rx="2.37" transform="translate(82.55 219.13) rotate(-45)"/></svg>